<svg xmlns="http://www.w3.org/2000/svg" version="1.1" xmlns:xlink="http://www.w3.org/1999/xlink" xmlns:svgjs="http://svgjs.dev/svgjs" width="1000" height="623" viewBox="0 0 1000 623"><g transform="matrix(1,0,0,1,-0.6060606060605664,0.2522267206477409)"><svg viewBox="0 0 396 247" data-background-color="#31c48d" preserveAspectRatio="xMidYMid meet" height="623" width="1000" xmlns="http://www.w3.org/2000/svg" xmlns:xlink="http://www.w3.org/1999/xlink"><g id="tight-bounds" transform="matrix(1,0,0,1,0.2400000000000091,-0.09999999999999432)"><svg viewBox="0 0 395.52 247.2" height="247.2" width="395.52"><g><svg></svg></g><g><svg viewBox="0 0 395.52 247.2" height="247.2" width="395.52"><g transform="matrix(1,0,0,1,75.54432,51.466780797460345)"><svg viewBox="0 0 244.43135999999998 144.2664384050793" height="144.2664384050793" width="244.43135999999998"><g><svg viewBox="0 0 244.43135999999998 144.2664384050793" height="144.2664384050793" width="244.43135999999998"><g><svg viewBox="0 0 244.43135999999998 144.2664384050793" height="144.2664384050793" width="244.43135999999998"><g><svg viewBox="0 0 244.43135999999998 144.2664384050793" height="144.2664384050793" width="244.43135999999998"><g id="textblocktransform"><svg viewBox="0 0 244.43135999999998 144.2664384050793" height="144.2664384050793" width="244.43135999999998" id="textblock"><g><svg viewBox="0 0 244.43135999999998 102.44354501628665" height="102.44354501628665" width="244.43135999999998"><g transform="matrix(1,0,0,1,0,0)"><svg width="244.43135999999998" viewBox="0.6 -37.4 92.09 38.6" height="102.44354501628665" data-palette-color="#ffffff"><path d="M13.8-1.6Q12.25-1.6 10.53-1.5 8.8-1.4 7.05-1.2 5.3-1 3.63-0.68 1.95-0.35 0.6 0.1L0.6 0.1Q0.9-2.15 1.3-4.9 1.7-7.65 2.23-10.6 2.75-13.55 3.28-16.55 3.8-19.55 4.35-22.3L4.35-22.3Q5.6-28.85 7-35.65L7-35.65 15.75-36.8Q14.4-31 13.15-25.5L13.15-25.5Q12.6-23.15 12.05-20.63 11.5-18.1 11-15.7 10.5-13.3 10.1-11.05 9.7-8.8 9.45-7.05L9.45-7.05Q10.7-7.15 12.13-7.18 13.55-7.2 14.65-7.2L14.65-7.2Q14.7-6.25 14.8-5.33 14.9-4.4 15.03-3.65 15.15-2.9 15.23-2.33 15.3-1.75 15.35-1.55L15.35-1.55Q14.95-1.55 14.58-1.58 14.2-1.6 13.8-1.6L13.8-1.6ZM43.1-27.05Q43.1-22.95 42.22-19.33 41.35-15.7 39.9-12.68 38.45-9.65 36.52-7.28 34.6-4.9 32.5-3.23 30.4-1.55 28.25-0.68 26.1 0.2 24.15 0.2L24.15 0.2Q22.5 0.2 21.15-0.43 19.8-1.05 18.8-2.27 17.8-3.5 17.22-5.43 16.65-7.35 16.65-10.05L16.65-10.05Q16.65-12.85 17.35-15.95 18.05-19.05 19.25-22.1 20.45-25.15 22.2-27.9 23.95-30.65 26.05-32.77 28.15-34.9 30.55-36.15 32.95-37.4 35.55-37.4L35.55-37.4Q37.8-37.4 39.27-36.48 40.75-35.55 41.57-34.08 42.4-32.6 42.75-30.75 43.1-28.9 43.1-27.05L43.1-27.05ZM24.1-11.35Q24.1-10.8 24.3-10.2 24.5-9.6 24.85-9.15 25.2-8.7 25.72-8.38 26.25-8.05 26.85-8.05L26.85-8.05Q29.1-8.05 30.85-9.6 32.6-11.15 33.75-13.4 34.9-15.65 35.52-18.2 36.15-20.75 36.15-22.85L36.15-22.85Q36.15-23.45 36.07-24.15 36-24.85 35.77-25.45 35.55-26.05 35.07-26.48 34.6-26.9 33.8-26.9L33.8-26.9Q32.2-26.9 30.85-26.1 29.5-25.3 28.42-23.98 27.35-22.65 26.55-20.98 25.75-19.3 25.17-17.57 24.6-15.85 24.35-14.2 24.1-12.55 24.1-11.35L24.1-11.35ZM66.95-19.05Q66.59-13.95 64.95-10.18 63.3-6.4 60.97-3.85 58.65-1.3 55.97-0.05 53.3 1.2 50.9 1.2L50.9 1.2Q49.05 1.2 47.37 0.4 45.7-0.4 44.47-2.02 43.25-3.65 42.55-6.1 41.85-8.55 41.85-11.85L41.85-11.85Q41.85-18.3 43.7-23.1 45.55-27.9 48.37-31.1 51.2-34.3 54.42-35.85 57.65-37.4 60.45-37.4L60.45-37.4Q62.45-37.4 63.92-36.7 65.4-36 66.34-34.83 67.3-33.65 67.72-32.08 68.15-30.5 68.15-28.75L68.15-28.75 61.3-27.45Q60.85-29.45 60.1-30.3 59.35-31.15 58.4-31.15L58.4-31.15Q57.15-31.15 55.65-29.38 54.15-27.6 52.85-24.8 51.55-22 50.65-18.65 49.75-15.3 49.65-12.05L49.65-12.05Q49.65-8.95 50.57-7.63 51.5-6.3 52.95-6.3L52.95-6.3Q53.95-6.3 55.02-6.8 56.1-7.3 56.95-8.22 57.8-9.15 58.37-10.38 58.95-11.6 59-13.05L59-13.05 53.65-12.25 54.6-17.2Q56.95-17.5 59.2-17.8L59.2-17.8Q61.1-18.05 63.22-18.4 65.34-18.75 66.95-19.05L66.95-19.05ZM92.69-27.05Q92.69-22.95 91.82-19.33 90.94-15.7 89.49-12.68 88.04-9.65 86.12-7.28 84.19-4.9 82.09-3.23 79.99-1.55 77.84-0.68 75.69 0.2 73.74 0.2L73.74 0.2Q72.09 0.2 70.74-0.43 69.39-1.05 68.39-2.27 67.39-3.5 66.82-5.43 66.24-7.35 66.24-10.05L66.24-10.05Q66.24-12.85 66.94-15.95 67.64-19.05 68.84-22.1 70.04-25.15 71.79-27.9 73.54-30.65 75.64-32.77 77.74-34.9 80.14-36.15 82.54-37.4 85.14-37.4L85.14-37.4Q87.39-37.4 88.87-36.48 90.34-35.55 91.17-34.08 91.99-32.6 92.34-30.75 92.69-28.9 92.69-27.05L92.69-27.05ZM73.69-11.35Q73.69-10.8 73.89-10.2 74.09-9.6 74.44-9.15 74.79-8.7 75.32-8.38 75.84-8.05 76.44-8.05L76.44-8.05Q78.69-8.05 80.44-9.6 82.19-11.15 83.34-13.4 84.49-15.65 85.12-18.2 85.74-20.75 85.74-22.85L85.74-22.85Q85.74-23.45 85.67-24.15 85.59-24.85 85.37-25.45 85.14-26.05 84.67-26.48 84.19-26.9 83.39-26.9L83.39-26.9Q81.79-26.9 80.44-26.1 79.09-25.3 78.02-23.98 76.94-22.65 76.14-20.98 75.34-19.3 74.77-17.57 74.19-15.85 73.94-14.2 73.69-12.55 73.69-11.35L73.69-11.35Z" opacity="1" transform="matrix(1,0,0,1,0,0)" fill="#ffffff" class="undefined-text-0" data-fill-palette-color="primary" id="text-0"></path></svg></g></svg></g><g transform="matrix(1,0,0,1,0,126.62800734955154)"><svg viewBox="0 0 244.43135999999998 17.638431055527764" height="17.638431055527764" width="244.43135999999998"><g transform="matrix(1,0,0,1,0,0)"><svg width="244.43135999999998" viewBox="1.5 -28.8 399.77 28.85" height="17.638431055527764" data-palette-color="#ffffff"><path d="M35.95-28.75L35.95-23.1 21.55-23.1 21.55 0 14.65 0 14.65-23.1 1.5-23.1 1.5-28.75 35.95-28.75ZM40.85 0.05L40.85-28.75 47-28.75 47-22 54.6-22 54.6-17.2 47-17.2 47 0.05 40.85 0.05ZM70.6 0.05L70.6-18.55 64.95-22 56.8-22 56.8-17.2 64.3-17.2 64.3 0.05 70.6 0.05ZM109.3-18.55L109.3-12.85 103.39-9.4 95.39-9.4 95.39-13.25 102.94-13.25 102.94-17.35 95.39-17.35 95.39-22.05 103.39-22.05 109.3-18.55ZM102.75-6.95L109.3-6.95 109.3-3.45 103.39 0 95.39 0 95.39-5.3 102.75-5.3 102.75-6.95ZM79.09-18.55L79.09-3.45 85 0 92.94 0 92.94-5.3 85.39-5.3 85.39-9.4 92.94-9.4 92.94-13.25 85.39-13.25 85.39-17.35 92.94-17.35 92.94-22.05 85-22.05 79.09-18.55ZM143.04-13.2L143.04-17.2 150.59-17.2 150.59-13.2 143.04-13.2ZM140.84-28.8L140.84 0 134.59 0 134.59-13.2 129.79-13.2 129.79-17.2 134.59-17.2 134.59-25.35 140.84-28.8ZM156.84-21.85L150.59-21.85 150.59-24.15 143.04-24.15 143.04-28.8 151.19-28.8 156.84-25.35 156.84-21.85ZM159.34 0L159.34-21.85 165.59-21.85 165.59-19.7 173.09-21.85 173.09-17.2 165.59-17.2 165.59 0 159.34 0ZM181.84-15.05L181.84-19.1 175.34-21.85 175.34-15.05 181.84-15.05ZM216.54-18.55L216.54-12.85 210.64-9.4 202.64-9.4 202.64-13.25 210.19-13.25 210.19-17.35 202.64-17.35 202.64-22.05 210.64-22.05 216.54-18.55ZM209.99-6.95L216.54-6.95 216.54-3.45 210.64 0 202.64 0 202.64-5.3 209.99-5.3 209.99-6.95ZM186.34-18.55L186.34-3.45 192.24 0 200.19 0 200.19-5.3 192.64-5.3 192.64-9.4 200.19-9.4 200.19-13.25 192.64-13.25 192.64-17.35 200.19-17.35 200.19-22.05 192.24-22.05 186.34-18.55ZM254.33-9.7L254.33-3.45 248.63 0 240.58 0 240.58-5.25 248.28-5.25 248.28-9.3 240.73-9.3 240.73-13.2 248.63-13.2 254.33-9.7ZM224.53-12.75L224.53-18.4 230.23-21.85 238.33-21.85 238.33-17.2 230.83-17.2 230.83-13.2 238.33-13.2 238.33-9.3 230.23-9.3 224.53-12.75ZM224.53-6.95L230.83-6.95 230.83-5.25 238.33-5.25 238.33 0 230.23 0 224.53-3.45 224.53-6.95ZM254.33-15.05L248.08-15.05 248.08-17.2 240.58-17.2 240.58-21.85 248.63-21.85 254.33-18.4 254.33-15.05ZM263.33 0.05L263.33-28.75 269.48-28.75 269.48-22 277.08-22 277.08-17.2 269.48-17.2 269.48 0.05 263.33 0.05ZM293.08 0.05L293.08-18.55 287.43-22 279.28-22 279.28-17.2 286.78-17.2 286.78 0.05 293.08 0.05ZM331.78-18.55L331.78-12.85 325.88-9.4 317.88-9.4 317.88-13.25 325.43-13.25 325.43-17.35 317.88-17.35 317.88-22.05 325.88-22.05 331.78-18.55ZM325.23-6.95L331.78-6.95 331.78-3.45 325.88 0 317.88 0 317.88-5.3 325.23-5.3 325.23-6.95ZM301.58-18.55L301.58-3.45 307.48 0 315.43 0 315.43-5.3 307.88-5.3 307.88-9.4 315.43-9.4 315.43-13.25 307.88-13.25 307.88-17.35 315.43-17.35 315.43-22.05 307.48-22.05 301.58-18.55ZM369.98-18.55L369.98-12.85 364.08-9.4 356.08-9.4 356.08-13.25 363.63-13.25 363.63-17.35 356.08-17.35 356.08-22.05 364.08-22.05 369.98-18.55ZM363.43-6.95L369.98-6.95 369.98-3.45 364.08 0 356.08 0 356.08-5.3 363.43-5.3 363.43-6.95ZM339.78-18.55L339.78-3.45 345.68 0 353.63 0 353.63-5.3 346.08-5.3 346.08-9.4 353.63-9.4 353.63-13.25 346.08-13.25 346.08-17.35 353.63-17.35 353.63-22.05 345.68-22.05 339.78-18.55ZM387.47-17.2L387.47-21.85 394.97-21.85 394.97-17.2 387.47-17.2ZM394.97-7.5L401.27-7.5 401.27-3.45 395.57 0 387.47 0 387.47-5.25 394.97-5.25 394.97-7.5ZM374.47-19.35L385.22-25.3 385.22-5.25 385.22 0 378.97-3.45 378.97-17.2 374.47-17.15 374.47-19.35Z" opacity="1" transform="matrix(1,0,0,1,0,0)" fill="#ffffff" class="undefined-text-1" data-fill-palette-color="secondary" id="text-1"></path></svg></g></svg></g></svg></g></svg></g></svg></g></svg></g></svg></g><g><path d="M0 123.6c0-68.262 55.338-123.6 123.6-123.6 35.717 0 67.896 15.15 90.461 39.375l-6.422 0c-21.524-21.476-51.231-34.755-84.039-34.756-65.711 0-118.981 53.27-118.981 118.981 0 65.711 53.27 118.981 118.981 118.981 32.808 0 62.515-13.279 84.039-34.756h6.422c-22.565 24.225-54.744 39.375-90.461 39.375-68.262 0-123.6-55.338-123.6-123.6z" fill="#ffffff" stroke="transparent" data-fill-palette-color="tertiary"></path></g></svg></g><defs></defs></svg><rect width="395.52" height="247.2" fill="none" stroke="none" visibility="hidden"></rect></g></svg></g></svg>