<svg xmlns="http://www.w3.org/2000/svg" version="1.1" xmlns:xlink="http://www.w3.org/1999/xlink" xmlns:svgjs="http://svgjs.dev/svgjs" width="1000" height="750" viewBox="0 0 1000 750"><rect width="1000" height="750" fill="#31c48d"></rect><g transform="matrix(0.834,0,0,0.834,82.49454545454546,115.4193570850203)"><svg viewBox="0 0 396 247" data-background-color="#31c48d" preserveAspectRatio="xMidYMid meet" height="623" width="1000" xmlns="http://www.w3.org/2000/svg" xmlns:xlink="http://www.w3.org/1999/xlink"><g id="tight-bounds" transform="matrix(1,0,0,1,0.2400000000000091,-0.09999999999999432)"><svg viewBox="0 0 395.52 247.2" height="247.2" width="395.52"><g><svg></svg></g><g><svg viewBox="0 0 395.52 247.2" height="247.2" width="395.52"><g transform="matrix(1,0,0,1,92.12251899993139,47.215199999999996)"><svg viewBox="0 0 211.2749620001372 152.7696" height="152.7696" width="211.2749620001372"><g><svg viewBox="0 0 211.2749620001372 152.7696" height="152.7696" width="211.2749620001372"><g><svg viewBox="0 0 244.43135999999998 176.74446958192684" height="152.7696" width="211.2749620001372"><g><svg viewBox="0 0 244.43135999999998 176.74446958192684" height="176.74446958192684" width="244.43135999999998"><g id="textblocktransform"><svg viewBox="0 0 244.43135999999998 176.74446958192684" height="176.74446958192684" width="244.43135999999998" id="textblock"><g><svg viewBox="0 0 244.43135999999998 128.7186536478332" height="128.7186536478332" width="244.43135999999998"><g transform="matrix(1,0,0,1,0,0)"><svg width="244.43135999999998" viewBox="3.5999999046325684 -36.599998474121094 91.13999938964844 48" height="128.7186536478332" data-palette-color="#ffffff"><path d="M9.1 0.5Q6.45 0.5 5.03-1.18 3.6-2.85 3.6-5.85L3.6-5.85 3.6-33.7Q3.6-35.05 4.48-35.83 5.35-36.6 6.75-36.6L6.75-36.6Q8.6-36.6 9.85-35.35L9.85-35.35Q9.35-33.55 9.2-31.48 9.05-29.4 9.05-25.6L9.05-25.6 9.05-6.3Q9.05-3.65 10.85-3.65L10.85-3.65Q11.35-3.65 11.83-3.85 12.3-4.05 12.5-4.45L12.5-4.45Q13.15-3.65 13.15-2.6L13.15-2.6Q13.15-1.25 11.95-0.38 10.75 0.5 9.1 0.5L9.1 0.5ZM27.95 0.65Q22.3 0.65 19.17-2.9 16.05-6.45 16.05-12.8L16.05-12.8Q16.05-19.2 19.2-22.75 22.35-26.3 27.95-26.3L27.95-26.3Q33.6-26.3 36.75-22.75 39.9-19.2 39.9-12.8L39.9-12.8Q39.9-6.45 36.75-2.9 33.6 0.65 27.95 0.65L27.95 0.65ZM27.95-1.4Q30.95-1.4 32.47-4.3 34-7.2 34-12.8L34-12.8Q34-18.45 32.47-21.35 30.95-24.25 27.95-24.25L27.95-24.25Q24.95-24.25 23.42-21.35 21.9-18.45 21.9-12.8L21.9-12.8Q21.9-7.2 23.42-4.3 24.95-1.4 27.95-1.4L27.95-1.4ZM53.05 11.4Q49.1 11.4 46.55 9.95 44 8.5 44 5.55L44 5.55Q44 3.75 45.1 2.68 46.2 1.6 47.95 1.6L47.95 1.6Q49.75 1.6 50.5 2.55L50.5 2.55Q49.05 3.7 49.05 5.8L49.05 5.8Q49.05 7.55 50.15 8.55 51.25 9.55 53.2 9.55L53.2 9.55Q56.85 9.55 58.67 6.6 60.5 3.65 60.5-1.75L60.5-1.75 60.5-5.35Q59.65-2.75 57.62-1.35 55.6 0.05 52.65 0.05L52.65 0.05Q48.45 0.05 46.12-2.95 43.8-5.95 43.8-12.4L43.8-12.4Q43.8-18.55 46.55-22.43 49.3-26.3 55.65-26.3L55.65-26.3Q58.7-26.3 61.42-25.45 64.15-24.6 65.9-23L65.9-23 65.9-2.25Q65.9 11.4 53.05 11.4L53.05 11.4ZM54.25-2.65Q57.35-2.65 58.87-5.38 60.4-8.1 60.45-12.4L60.45-12.4 60.5-22.8Q59.75-23.5 58.5-23.88 57.25-24.25 55.85-24.25L55.85-24.25Q52.25-24.25 50.92-21.03 49.6-17.8 49.6-11.9L49.6-11.9Q49.6-6.85 50.67-4.75 51.75-2.65 54.25-2.65L54.25-2.65ZM82.79 0.65Q77.14 0.65 74.02-2.9 70.89-6.45 70.89-12.8L70.89-12.8Q70.89-19.2 74.04-22.75 77.19-26.3 82.79-26.3L82.79-26.3Q88.44-26.3 91.59-22.75 94.74-19.2 94.74-12.8L94.74-12.8Q94.74-6.45 91.59-2.9 88.44 0.65 82.79 0.65L82.79 0.65ZM82.79-1.4Q85.79-1.4 87.32-4.3 88.84-7.2 88.84-12.8L88.84-12.8Q88.84-18.45 87.32-21.35 85.79-24.25 82.79-24.25L82.79-24.25Q79.79-24.25 78.27-21.35 76.74-18.45 76.74-12.8L76.74-12.8Q76.74-7.2 78.27-4.3 79.79-1.4 82.79-1.4L82.79-1.4Z" opacity="1" transform="matrix(1,0,0,1,0,0)" fill="#ffffff" class="undefined-text-0" data-fill-palette-color="primary" id="text-0"></path></svg></g></svg></g><g transform="matrix(1,0,0,1,0,159.1060385263991)"><svg viewBox="0 0 244.43135999999998 17.638431055527764" height="17.638431055527764" width="244.43135999999998"><g transform="matrix(1,0,0,1,0,0)"><svg width="244.43135999999998" viewBox="1.5 -28.799999237060547 399.7699890136719 28.849998474121094" height="17.638431055527764" data-palette-color="#ffffff"><path d="M35.95-28.75L35.95-23.1 21.55-23.1 21.55 0 14.65 0 14.65-23.1 1.5-23.1 1.5-28.75 35.95-28.75ZM40.85 0.05L40.85-28.75 47-28.75 47-22 54.6-22 54.6-17.2 47-17.2 47 0.05 40.85 0.05ZM70.6 0.05L70.6-18.55 64.95-22 56.8-22 56.8-17.2 64.3-17.2 64.3 0.05 70.6 0.05ZM109.3-18.55L109.3-12.85 103.39-9.4 95.39-9.4 95.39-13.25 102.94-13.25 102.94-17.35 95.39-17.35 95.39-22.05 103.39-22.05 109.3-18.55ZM102.75-6.95L109.3-6.95 109.3-3.45 103.39 0 95.39 0 95.39-5.3 102.75-5.3 102.75-6.95ZM79.09-18.55L79.09-3.45 85 0 92.94 0 92.94-5.3 85.39-5.3 85.39-9.4 92.94-9.4 92.94-13.25 85.39-13.25 85.39-17.35 92.94-17.35 92.94-22.05 85-22.05 79.09-18.55ZM143.04-13.2L143.04-17.2 150.59-17.2 150.59-13.2 143.04-13.2ZM140.84-28.8L140.84 0 134.59 0 134.59-13.2 129.79-13.2 129.79-17.2 134.59-17.2 134.59-25.35 140.84-28.8ZM156.84-21.85L150.59-21.85 150.59-24.15 143.04-24.15 143.04-28.8 151.19-28.8 156.84-25.35 156.84-21.85ZM159.34 0L159.34-21.85 165.59-21.85 165.59-19.7 173.09-21.85 173.09-17.2 165.59-17.2 165.59 0 159.34 0ZM181.84-15.05L181.84-19.1 175.34-21.85 175.34-15.05 181.84-15.05ZM216.54-18.55L216.54-12.85 210.64-9.4 202.64-9.4 202.64-13.25 210.19-13.25 210.19-17.35 202.64-17.35 202.64-22.05 210.64-22.05 216.54-18.55ZM209.99-6.95L216.54-6.95 216.54-3.45 210.64 0 202.64 0 202.64-5.3 209.99-5.3 209.99-6.95ZM186.34-18.55L186.34-3.45 192.24 0 200.19 0 200.19-5.3 192.64-5.3 192.64-9.4 200.19-9.4 200.19-13.25 192.64-13.25 192.64-17.35 200.19-17.35 200.19-22.05 192.24-22.05 186.34-18.55ZM254.33-9.7L254.33-3.45 248.63 0 240.58 0 240.58-5.25 248.28-5.25 248.28-9.3 240.73-9.3 240.73-13.2 248.63-13.2 254.33-9.7ZM224.53-12.75L224.53-18.4 230.23-21.85 238.33-21.85 238.33-17.2 230.83-17.2 230.83-13.2 238.33-13.2 238.33-9.3 230.23-9.3 224.53-12.75ZM224.53-6.95L230.83-6.95 230.83-5.25 238.33-5.25 238.33 0 230.23 0 224.53-3.45 224.53-6.95ZM254.33-15.05L248.08-15.05 248.08-17.2 240.58-17.2 240.58-21.85 248.63-21.85 254.33-18.4 254.33-15.05ZM263.33 0.05L263.33-28.75 269.48-28.75 269.48-22 277.08-22 277.08-17.2 269.48-17.2 269.48 0.05 263.33 0.05ZM293.08 0.05L293.08-18.55 287.43-22 279.28-22 279.28-17.2 286.78-17.2 286.78 0.05 293.08 0.05ZM331.78-18.55L331.78-12.85 325.88-9.4 317.88-9.4 317.88-13.25 325.43-13.25 325.43-17.35 317.88-17.35 317.88-22.05 325.88-22.05 331.78-18.55ZM325.23-6.95L331.78-6.95 331.78-3.45 325.88 0 317.88 0 317.88-5.3 325.23-5.3 325.23-6.95ZM301.58-18.55L301.58-3.45 307.48 0 315.43 0 315.43-5.3 307.88-5.3 307.88-9.4 315.43-9.4 315.43-13.25 307.88-13.25 307.88-17.35 315.43-17.35 315.43-22.05 307.48-22.05 301.58-18.55ZM369.98-18.55L369.98-12.85 364.08-9.4 356.08-9.4 356.08-13.25 363.63-13.25 363.63-17.35 356.08-17.35 356.08-22.05 364.08-22.05 369.98-18.55ZM363.43-6.95L369.98-6.95 369.98-3.45 364.08 0 356.08 0 356.08-5.3 363.43-5.3 363.43-6.95ZM339.78-18.55L339.78-3.45 345.68 0 353.63 0 353.63-5.3 346.08-5.3 346.08-9.4 353.63-9.4 353.63-13.25 346.08-13.25 346.08-17.35 353.63-17.35 353.63-22.05 345.68-22.05 339.78-18.55ZM387.47-17.2L387.47-21.85 394.97-21.85 394.97-17.2 387.47-17.2ZM394.97-7.5L401.27-7.5 401.27-3.45 395.57 0 387.47 0 387.47-5.25 394.97-5.25 394.97-7.5ZM374.47-19.35L385.22-25.3 385.22-5.25 385.22 0 378.97-3.45 378.97-17.2 374.47-17.15 374.47-19.35Z" opacity="1" transform="matrix(1,0,0,1,0,0)" fill="#ffffff" class="undefined-text-1" data-fill-palette-color="secondary" id="text-1"></path></svg></g></svg></g></svg></g></svg></g></svg></g></svg></g></svg></g><g><path d="M0 123.6c0-68.262 55.338-123.6 123.6-123.6 33.04 0 63.052 12.964 85.227 34.082h-7.451c-20.82-18.105-48.018-29.066-77.776-29.065-65.492 0-118.583 53.092-118.583 118.583 0 65.492 53.092 118.583 118.583 118.583 29.758 0 56.955-10.961 77.776-29.065l7.451 0c-22.175 21.119-52.187 34.082-85.227 34.082-68.262 0-123.6-55.338-123.6-123.6z" fill="#ffffff" stroke="transparent" data-fill-palette-color="tertiary"></path></g></svg></g><defs></defs></svg><rect width="395.52" height="247.2" fill="none" stroke="none" visibility="hidden"></rect></g></svg></g></svg>