<svg xmlns="http://www.w3.org/2000/svg" version="1.1" xmlns:xlink="http://www.w3.org/1999/xlink" xmlns:svgjs="http://svgjs.dev/svgjs" width="1000" height="499" viewBox="0 0 1000 499"><g transform="matrix(1,0,0,1,-0.6056348047761162,-0.6167531715728103)"><svg viewBox="0 0 396 198" data-background-color="#ffffff" preserveAspectRatio="xMidYMid meet" height="499" width="1000" xmlns="http://www.w3.org/2000/svg" xmlns:xlink="http://www.w3.org/1999/xlink"><g id="tight-bounds" transform="matrix(1,0,0,1,0.24008861730862918,0.24472370334953553)"><svg viewBox="0 0 395.52 197.51055168130154" height="197.51055168130154" width="395.52"><g><svg viewBox="0 0 395.52 197.51055168130154" height="197.51055168130154" width="395.52"><g><svg viewBox="0 0 395.52 197.51055168130154" height="197.51055168130154" width="395.52"><g id="textblocktransform"><svg viewBox="0 0 395.52 197.51055168130154" height="197.51055168130154" width="395.52" id="textblock"><g><svg viewBox="0 0 395.52 134.01258139525777" height="134.01258139525777" width="395.52"><path d="M394.594 28.743C392.735 14.833 387.435 10.966 387.435 10.966 371.165-3.362 350.86-0.274 332.619 1.785 300.414 1.868 268.339 4.928 236.208 6.57 168.767 6.82 100.749 2.703 33.643 12.857 27.339 15.973-6.54 13.469 1.121 30.524 3.129 37.618 10.456 45.491 10.232 52.001 11.236 53.142 12.631 50.527 13.226 52.168 15.309 56.592 18.711 54.505 21.501 57.12 17.614 64.104 20.403 69.918 23.062 76.011 18.377 77.597 12.371 76.846 9.675 82.104 9.396 85.915 7.89 85.192 6.235 85.025 5.026 84.914 2.59 85.331 2.999 86.527 4.394 90.617-1.594 92.982 2.162 96.988-0.422 101.328 3.948 105.084 3.353 109.785 3.278 110.731 3.687 111.538 4.338 111.761 7.22 112.957 3.018 115.294 3.464 117.826 33.029 135.13 65.104 123.167 95.394 131.124 103.259 125.56 97.346 133.099 100.489 131.931 102.943 130.568 104.728 136.215 107.499 133.016 107.927 132.098 107.276 129.928 108.8 130.345 109.6 130.568 110.307 130.512 110.418 129.232 110.586 127.313 109.117 128.509 108.726 127.507 112.947 122.444 111.906 134.49 115.866 133.99 115.68 132.515 114.528 130.401 116.889 130.679 119.232 128.565 119.306 126.812 121.389 131.569 121.463 132.599 121.835 133.322 122.43 133.823 128.938 128.648 135.409 135.659 142.233 133.322 146.417 130.762 150.433 134.713 154.672 133.739 156.16 132.96 157.666 131.569 159.098 133.906 176.632 134.407 195.319 132.32 211.943 133.99 256.364 130.874 303.835 135.269 350.674 131.152 361.719 129.566 373.192 127.313 383.958 125.504 383.958 125.504 392.679 120.552 392.679 98.295S394.538 78.821 394.817 61.099C395.096 43.377 396.398 42.654 394.538 28.743Z" opacity="1" fill="#096a2e" data-fill-palette-color="tertiary"></path><g transform="matrix(1,0,0,1,55.76832,26.068561146666667)"><svg width="283.98335999999995" viewBox="2.049999952316284 -38.22999954223633 137.00999450683594 39.5" height="81.87545910192443" data-palette-color="#ffffff"><path d="M16.36-34.99L16.36-34.99Q16.33-34.4 16.26-33.53 16.19-32.67 16.1-31.7 16.02-30.74 15.91-29.75 15.8-28.76 15.71-27.93 15.63-27.1 15.58-26.5 15.53-25.9 15.53-25.73L15.53-25.73Q15.43-24.22 15.32-22.92 15.21-21.63 15.09-20.36 14.97-19.09 14.83-17.74 14.7-16.38 14.55-14.75 14.4-13.11 14.22-11.11 14.04-9.11 13.84-6.52L13.84-6.52 23.95-7.54Q24.63-7.62 25.07-7.62L25.07-7.62Q25.61-7.62 25.74-7.45 25.88-7.28 25.88-6.91L25.88-6.91Q25.88-6.86 25.85-6.77 25.83-6.69 25.74-6.45 25.66-6.2 25.5-5.74 25.34-5.27 25.07-4.44L25.07-4.44 24.54-2.83Q24.27-2.05 24.04-1.43 23.8-0.81 23.46-0.35 23.12 0.1 22.61 0.37 22.09 0.63 21.29 0.71L21.29 0.71Q20.78 0.76 19.9 0.79 19.02 0.83 17.87 0.87 16.72 0.9 15.39 0.95 14.06 1 12.67 1.07L12.67 1.07Q11.3 1.12 9.91 1.14 8.52 1.15 7.28 1.17 6.03 1.2 4.98 1.22 3.93 1.25 3.25 1.27L3.25 1.27Q2.61 1.27 2.33 1.17 2.05 1.07 2.05 0.85L2.05 0.85Q2.05 0.59 2.22 0.09 2.39-0.42 2.66-1.04 2.93-1.66 3.26-2.33 3.59-3 3.91-3.64L3.91-3.64 4.57-12.35Q4.76-14.58 4.96-16.87 5.15-19.17 5.3-21.31L5.3-21.31 5.71-27.78Q5.86-30.08 5.91-31.12 5.96-32.15 5.96-32.25L5.96-32.25Q6.01-32.69 6.03-32.98 6.05-33.28 6.12-33.47 6.18-33.67 6.3-33.76 6.42-33.86 6.67-33.91L6.67-33.91 15.23-35.94Q15.5-36.04 15.89-36.04L15.89-36.04Q16.16-36.04 16.27-35.88 16.38-35.72 16.38-35.28L16.38-35.28Q16.38-35.23 16.37-35.14 16.36-35.06 16.36-34.99ZM38.06-16.65L38.06-16.65Q38.06-14.89 38.44-13.12 38.82-11.35 39.69-9.94 40.57-8.52 42.01-7.64 43.45-6.76 45.58-6.76L45.58-6.76Q47.21-6.86 48.45-7.43 49.68-8.01 50.57-8.92 51.46-9.84 52.05-11.02 52.63-12.21 52.98-13.51 53.32-14.82 53.45-16.19 53.59-17.55 53.59-18.82L53.59-18.82Q53.59-20.56 53.12-22.18 52.66-23.8 51.73-25.05 50.8-26.29 49.42-27.05 48.04-27.81 46.21-27.81L46.21-27.81Q44.77-27.81 43.61-27.27 42.45-26.73 41.55-25.84 40.65-24.95 40-23.79 39.35-22.63 38.93-21.4 38.5-20.17 38.29-18.93 38.08-17.7 38.06-16.65ZM42.82 1.27L42.82 1.27Q39.16 1.27 36.28-0.1 33.4-1.46 31.41-3.8 29.42-6.13 28.35-9.19 27.29-12.26 27.29-15.67L27.29-15.67Q27.29-19.51 28.38-22.74 29.47-25.98 31.42-28.48 33.37-30.98 36.07-32.7 38.77-34.42 41.99-35.25L41.99-35.25Q42.28-35.25 42.44-35.72 42.6-36.18 42.72-36.74 42.84-37.3 43.02-37.77 43.19-38.23 43.5-38.23L43.5-38.23Q48.24-37.74 52.02-36.56 55.81-35.38 58.44-33.18 61.08-30.98 62.49-27.62 63.89-24.27 63.89-19.43L63.89-19.43Q63.89-16.33 63.13-13.6 62.38-10.86 61.01-8.56 59.64-6.25 57.72-4.43 55.81-2.61 53.46-1.34 51.12-0.07 48.42 0.6 45.73 1.27 42.82 1.27ZM66.87-15.77L66.87-15.77Q66.87-18.58 67.51-21.15 68.16-23.73 69.36-25.96 70.55-28.2 72.25-30.02 73.95-31.84 76.04-33.14 78.14-34.45 80.6-35.16 83.05-35.86 85.76-35.86L85.76-35.86Q87.91-35.86 89.53-35.58 91.16-35.3 92.37-34.88 93.57-34.45 94.39-33.94 95.21-33.42 95.75-32.96L95.75-32.96Q95.72-32.96 95.72-32.79L95.72-32.79Q95.72-32.42 95.78-31.45 95.84-30.47 95.93-29.27 96.02-28.08 96.08-26.84 96.14-25.61 96.14-24.71L96.14-24.71Q96.14-24.56 96.04-24.38 95.94-24.19 95.55-24.19L95.55-24.19Q95.33-24.19 95.01-24.27L95.01-24.27Q94.5-24.41 93.72-24.94 92.94-25.46 91.9-26.04 90.86-26.61 89.58-27.06 88.3-27.51 86.79-27.51L86.79-27.51Q84.79-27.51 83.15-26.67 81.51-25.83 80.37-24.33 79.22-22.83 78.58-20.76 77.95-18.7 77.95-16.28L77.95-16.28Q77.95-14.16 78.34-12.3 78.73-10.45 79.52-9.09 80.32-7.74 81.49-6.96 82.66-6.18 84.25-6.18L84.25-6.18Q85.79-6.18 87.74-6.84L87.74-6.84 88.3-10.28 83.64-10.28Q84.17-13.23 84.57-14.92 84.96-16.6 85.3-17.46 85.64-18.31 86.01-18.53 86.37-18.75 86.86-18.75L86.86-18.75 99.7-18.75Q100.26-18.75 100.52-18.68 100.78-18.6 100.78-18.16L100.78-18.16Q100.78-17.94 100.73-17.64 100.68-17.33 100.61-16.89L100.61-16.89 99.38-12.79Q99.16-12.01 99.02-11.58 98.87-11.16 98.65-10.95 98.43-10.74 98.05-10.71 97.68-10.67 96.97-10.67L96.97-10.67Q96.58-10.67 96.5-10.35 96.43-10.03 96.38-9.69L96.38-9.69Q96.24-8.62 96.09-7.56 95.94-6.49 95.81-5.58 95.67-4.66 95.53-3.97 95.38-3.27 95.23-2.95L95.23-2.95Q93.57-1.9 92.22-1.11 90.86-0.32 89.52 0.21 88.18 0.73 86.69 1 85.2 1.27 83.27 1.27L83.27 1.27Q79.83 1.27 76.83 0.02 73.82-1.22 71.61-3.48 69.4-5.74 68.13-8.86 66.87-11.99 66.87-15.77ZM113.22-16.65L113.22-16.65Q113.22-14.89 113.6-13.12 113.98-11.35 114.86-9.94 115.74-8.52 117.18-7.64 118.62-6.76 120.74-6.76L120.74-6.76Q122.38-6.86 123.61-7.43 124.85-8.01 125.74-8.92 126.63-9.84 127.21-11.02 127.8-12.21 128.14-13.51 128.48-14.82 128.62-16.19 128.75-17.55 128.75-18.82L128.75-18.82Q128.75-20.56 128.29-22.18 127.82-23.8 126.9-25.05 125.97-26.29 124.59-27.05 123.21-27.81 121.38-27.81L121.38-27.81Q119.94-27.81 118.78-27.27 117.62-26.73 116.72-25.84 115.81-24.95 115.17-23.79 114.52-22.63 114.09-21.4 113.66-20.17 113.46-18.93 113.25-17.7 113.22-16.65ZM117.99 1.27L117.99 1.27Q114.32 1.27 111.44-0.1 108.56-1.46 106.57-3.8 104.58-6.13 103.52-9.19 102.46-12.26 102.46-15.67L102.46-15.67Q102.46-19.51 103.54-22.74 104.63-25.98 106.58-28.48 108.54-30.98 111.24-32.7 113.93-34.42 117.16-35.25L117.16-35.25Q117.45-35.25 117.61-35.72 117.77-36.18 117.89-36.74 118.01-37.3 118.18-37.77 118.35-38.23 118.67-38.23L118.67-38.23Q123.41-37.74 127.19-36.56 130.97-35.38 133.61-33.18 136.25-30.98 137.65-27.62 139.06-24.27 139.06-19.43L139.06-19.43Q139.06-16.33 138.3-13.6 137.54-10.86 136.17-8.56 134.81-6.25 132.89-4.43 130.97-2.61 128.63-1.34 126.29-0.07 123.59 0.6 120.89 1.27 117.99 1.27Z" opacity="1" transform="matrix(1,0,0,1,0,0)" fill="#ffffff" class="undefined-text-0" data-fill-palette-color="quaternary" id="text-0"></path></svg></g></svg></g><g transform="matrix(1,0,0,1,39.55200000000002,153.34141227820368)"><svg viewBox="0 0 316.41599999999994 44.16913940309784" height="44.16913940309784" width="316.41599999999994"><g transform="matrix(1,0,0,1,0,0)"><svg width="316.41599999999994" viewBox="0.6500000357627869 -36.400001525878906 264.6700134277344 36.95000076293945" height="44.16913940309784" data-palette-color="#096a2e"><path d="M11.3-31.15L0.65-31.15 0.65-34.6 25.65-34.6 25.65-31.15 15.1-31.15 15.1 0 11.3 0 11.3-31.15ZM33.65-20.65L33.65 0 29.9 0 29.9-35.9 33.65-35.9 33.65-23.6Q37.65-25.5 41.35-25.5L41.35-25.5Q46.35-25.5 48.07-22.8 49.8-20.1 49.8-13.2L49.8-13.2 49.8 0 46.05 0 46.05-13.1Q46.05-18.3 45.02-20.23 44-22.15 40.7-22.15L40.7-22.15Q37.55-22.15 34.6-21L34.6-21 33.65-20.65ZM73.75-3.1L73.75-3.1 75.2-3.25 75.3-0.3Q69.59 0.5 65.55 0.5L65.55 0.5Q60.15 0.5 57.9-2.63 55.65-5.75 55.65-12.35L55.65-12.35Q55.65-25.5 66.09-25.5L66.09-25.5Q71.15-25.5 73.65-22.68 76.15-19.85 76.15-13.8L76.15-13.8 75.95-10.95 59.45-10.95Q59.45-6.8 60.95-4.8 62.45-2.8 66.17-2.8 69.9-2.8 73.75-3.1ZM59.4-13.95L72.4-13.95Q72.4-18.55 70.92-20.45 69.45-22.35 66.12-22.35 62.8-22.35 61.12-20.35 59.45-18.35 59.4-13.95L59.4-13.95ZM105.04-21.75L97.79-21.75 97.79 0 94.04 0 94.04-21.75 90.89-21.75 90.89-25 94.04-25 94.04-27.25Q94.04-32.55 95.54-34.48 97.04-36.4 100.79-36.4L100.79-36.4 105.84-36.05 105.79-32.95Q102.99-33.05 101.17-33.05 99.34-33.05 98.57-31.85 97.79-30.65 97.79-27.2L97.79-27.2 97.79-25 105.04-25 105.04-21.75ZM113.29 0L109.54 0 109.54-25 113.24-25 113.24-21.6Q117.59-24.6 122.39-25.55L122.39-25.55 122.39-21.75Q120.29-21.35 118.01-20.5 115.74-19.65 114.54-19L114.54-19 113.29-18.35 113.29 0ZM143.34-3.1L143.34-3.1 144.79-3.25 144.89-0.3Q139.19 0.5 135.14 0.5L135.14 0.5Q129.74 0.5 127.49-2.63 125.24-5.75 125.24-12.35L125.24-12.35Q125.24-25.5 135.69-25.5L135.69-25.5Q140.74-25.5 143.24-22.68 145.74-19.85 145.74-13.8L145.74-13.8 145.54-10.95 129.04-10.95Q129.04-6.8 130.54-4.8 132.04-2.8 135.76-2.8 139.49-2.8 143.34-3.1ZM128.99-13.95L141.99-13.95Q141.99-18.55 140.51-20.45 139.04-22.35 135.71-22.35 132.39-22.35 130.71-20.35 129.04-18.35 128.99-13.95L128.99-13.95ZM159.43-22.15L159.43-22.15Q153.98-22.15 153.98-18.35L153.98-18.35Q153.98-16.6 155.23-15.88 156.48-15.15 160.93-14.38 165.38-13.6 167.23-12.2 169.08-10.8 169.08-6.95 169.08-3.1 166.61-1.3 164.13 0.5 159.38 0.5L159.38 0.5Q156.28 0.5 152.08-0.2L152.08-0.2 150.58-0.45 150.78-3.7Q156.48-2.85 159.38-2.85 162.28-2.85 163.81-3.78 165.33-4.7 165.33-6.88 165.33-9.05 164.03-9.83 162.73-10.6 158.33-11.3 153.93-12 152.08-13.35 150.23-14.7 150.23-18.35 150.23-22 152.81-23.75 155.38-25.5 159.23-25.5L159.23-25.5Q162.28-25.5 166.88-24.8L166.88-24.8 168.28-24.55 168.18-21.35Q162.63-22.15 159.43-22.15ZM178.58-20.65L178.58 0 174.83 0 174.83-35.9 178.58-35.9 178.58-23.6Q182.58-25.5 186.28-25.5L186.28-25.5Q191.28-25.5 193.01-22.8 194.73-20.1 194.73-13.2L194.73-13.2 194.73 0 190.98 0 190.98-13.1Q190.98-18.3 189.96-20.23 188.93-22.15 185.63-22.15L185.63-22.15Q182.48-22.15 179.53-21L179.53-21 178.58-20.65ZM218.68-3.1L218.68-3.1 220.13-3.25 220.23-0.3Q214.53 0.5 210.48 0.5L210.48 0.5Q205.08 0.5 202.83-2.63 200.58-5.75 200.58-12.35L200.58-12.35Q200.58-25.5 211.03-25.5L211.03-25.5Q216.08-25.5 218.58-22.68 221.08-19.85 221.08-13.8L221.08-13.8 220.88-10.95 204.38-10.95Q204.38-6.8 205.88-4.8 207.38-2.8 211.1-2.8 214.83-2.8 218.68-3.1ZM204.33-13.95L217.33-13.95Q217.33-18.55 215.85-20.45 214.38-22.35 211.05-22.35 207.73-22.35 206.05-20.35 204.38-18.35 204.33-13.95L204.33-13.95ZM243.93-3.1L243.93-3.1 245.38-3.25 245.48-0.3Q239.78 0.5 235.73 0.5L235.73 0.5Q230.33 0.5 228.08-2.63 225.83-5.75 225.83-12.35L225.83-12.35Q225.83-25.5 236.28-25.5L236.28-25.5Q241.33-25.5 243.83-22.68 246.33-19.85 246.33-13.8L246.33-13.8 246.13-10.95 229.63-10.95Q229.63-6.8 231.13-4.8 232.63-2.8 236.35-2.8 240.08-2.8 243.93-3.1ZM229.58-13.95L242.58-13.95Q242.58-18.55 241.1-20.45 239.63-22.35 236.3-22.35 232.98-22.35 231.3-20.35 229.63-18.35 229.58-13.95L229.58-13.95ZM264.97-25L264.97-21.75 257.02-21.75 257.02-9.8Q257.02-5.5 257.65-4.15 258.27-2.8 260.62-2.8L260.62-2.8 265.07-3.1 265.32 0Q261.97 0.55 260.22 0.55L260.22 0.55Q256.32 0.55 254.82-1.35 253.32-3.25 253.32-8.6L253.32-8.6 253.32-21.75 249.77-21.75 249.77-25 253.32-25 253.32-32.65 257.02-32.65 257.02-25 264.97-25Z" opacity="1" transform="matrix(1,0,0,1,0,0)" fill="#096a2e" class="undefined-text-1" data-fill-palette-color="secondary" id="text-1"></path></svg></g></svg></g></svg></g></svg></g><g></g></svg></g><defs></defs></svg><rect width="395.52" height="197.51055168130154" fill="none" stroke="none" visibility="hidden"></rect></g></svg></g></svg>